<?xml version="1.0" encoding="utf-8"?>
<!-- Generator: Adobe Illustrator 23.0.1, SVG Export Plug-In . SVG Version: 6.00 Build 0)  -->
<svg version="1.1" id="Layer_1" xmlns="http://www.w3.org/2000/svg" xmlns:xlink="http://www.w3.org/1999/xlink" x="0px" y="0px"
	 viewBox="0 0 109.1 18" style="enable-background:new 0 0 109.1 18;" xml:space="preserve">
<style type="text/css">
	.st0{fill:#6C3A1F;}
</style>
<path id="Path_2693" class="st0" d="M38.5,9.7c0.8-0.9,1.8-1.8,2.5-2.8c0.5-0.8,1.5-1.3,2.5-1.1c1,0.1,2.1,0,3.2,0l-4.6,5l4.7,6.9
	c-1.3,0-2.5,0-3.7,0c-0.4,0.1-0.9-0.2-1.1-0.6c-0.8-1.2-1.6-2.4-2.4-3.6c-0.4,0.4-0.8,0.8-1.1,1.3c-0.1,0.1-0.1,0.3-0.1,0.4
	c0,0.8,0,1.7,0,2.5h-3.6V0.4h3.6v9.3L38.5,9.7z"/>
<path id="Path_2696" class="st0" d="M58.1,5.8L59,8.9c-0.4,0.3-0.9,0.6-1.2,1c-0.9,1.2-0.6,2.8,0.6,3.7c0.3,0.2,0.6,0.4,1,0.4
	c0.6,0.1,1.2,0.1,1.8,0c1.1-0.2,1.9-1.1,2.1-2.2c0.3-1.2-0.3-2.4-1.4-2.8c-0.1-0.1-0.2-0.2-0.2-0.3c0.3-1,0.6-1.9,0.9-3
	c0.3,0.1,0.5,0.2,0.8,0.3c2.1,0.9,3.4,3,3.3,5.3c0.1,3.5-2.6,6.4-6,6.5c-3.5,0.1-6.4-2.6-6.5-6c0-0.1,0-0.2,0-0.3
	c-0.1-1.8,0.7-3.5,2.1-4.6C56.6,6.3,57.3,5.9,58.1,5.8z"/>
<path id="Path_2698" class="st0" d="M48.2,17.6V5.8h3.6v11.8H48.2z"/>
<path id="Path_2699" class="st0" d="M52.1,2.8c0,1.2-0.9,2.1-2.1,2.1c0,0,0,0,0,0c-1.2,0-2.1-1-2.1-2.1c0-1.2,1-2.1,2.1-2.1
	C51.2,0.6,52.1,1.6,52.1,2.8C52.1,2.7,52.1,2.8,52.1,2.8z"/>
</svg>
